<svg xmlns="http://www.w3.org/2000/svg" width="113" height="21" viewBox="0 0 113 21">
    <g fill="none" fill-rule="evenodd">
        <g fill="#FFF" fill-rule="nonzero">
            <g>
                <g>
                    <g>
                        <path d="M9.32 5.335H5.921c-.476 0-.753.262-.753.738v.339c0 .476.277.738.753.738h1.861v1.661c-.553.292-1.245.43-1.876.43-2.215 0-3.46-1.614-3.46-3.429 0-1.907 1.43-3.43 3.352-3.43.615 0 1.215.031 2.03.446.43.2.754.17 1.03-.215l.385-.492c.277-.385.231-.77-.184-1.03C8.12.536 7.074.26 5.798.26 2.43.26 0 2.782 0 5.827c0 3.015 2.384 5.537 5.86 5.537 1.276 0 2.584-.384 3.737-1.246.354-.261.477-.553.477-.938V6.074c0-.477-.277-.74-.754-.74zM15.581 3.12c-2.507 0-4.383 1.846-4.383 4.122 0 2.292 1.876 4.122 4.383 4.122s4.383-1.846 4.383-4.122-1.876-4.122-4.383-4.122zm0 6.321c-1.2 0-2.123-.953-2.123-2.184 0-1.245.923-2.199 2.123-2.199 1.184 0 2.123.954 2.123 2.2 0 1.23-.939 2.183-2.123 2.183z" transform="translate(-271 -21) translate(271 21) translate(0 3) translate(18.738 2.776)"/>
                        <path d="M27.194 1.752v-.585c0-.476-.277-.738-.754-.738h-7.352c-.476 0-.738.262-.738.738v.585c0 .476.262.738.738.738h2.46v7.967c0 .477.263.738.74.738h.922c.477 0 .739-.261.739-.738V2.49h2.491c.476 0 .754-.262.754-.738z" transform="translate(-271 -21) translate(271 21) translate(0 3) translate(18.738 2.776)"/>
                        <path d="M29.963 3.12c-2.508 0-4.384 1.846-4.384 4.122 0 2.292 1.876 4.122 4.384 4.122 2.506 0 4.383-1.846 4.383-4.122S32.469 3.12 29.963 3.12zm0 6.321c-1.2 0-2.123-.953-2.123-2.184 0-1.245.923-2.199 2.123-2.199 1.184 0 2.122.954 2.122 2.2 0 1.23-.938 2.183-2.122 2.183zM46.82.429h-.677c-.23 0-.385.092-.477.323l-3.768 8.72L38.13.752c-.093-.23-.246-.323-.477-.323h-.677c-.246 0-.4.138-.415.384l-.938 9.951c-.015.277.123.43.4.43h.385c.26 0 .415-.138.445-.384l.754-8.612 3.676 8.535c.092.216.246.323.477.323h.277c.23 0 .369-.107.46-.323l3.692-8.535.754 8.612c.031.246.185.385.446.385h.384c.277 0 .416-.154.4-.43L47.235.812C47.22.567 47.065.43 46.82.43zM53.65 3.351c-2.37 0-4.107 1.815-4.107 4.045 0 2.169 1.66 3.968 4.306 3.968.97 0 2.015-.246 2.907-1 .262-.215.262-.461.092-.646l-.123-.122c-.169-.17-.369-.185-.569-.047-.707.539-1.492.77-2.307.77-1.892 0-3.23-1.262-3.122-2.969h6.352c.277 0 .446-.154.4-.415-.2-2.461-1.953-3.584-3.83-3.584zm-2.815 3.092c.446-1.416 1.646-2.046 2.845-2.046 1.061 0 2.261.461 2.615 2.046h-5.46zM62.786 3.351c-2.369 0-4.107 1.815-4.107 4.045 0 2.169 1.661 3.968 4.307 3.968.969 0 2.014-.246 2.907-1 .261-.215.261-.461.092-.646l-.123-.122c-.17-.17-.37-.185-.57-.047-.707.539-1.491.77-2.306.77-1.892 0-3.23-1.262-3.122-2.969h6.352c.277 0 .446-.154.4-.415-.2-2.461-1.954-3.584-3.83-3.584zM59.97 6.443c.446-1.416 1.646-2.046 2.846-2.046 1.06 0 2.26.461 2.614 2.046h-5.46zM74.614 3.52h-.353c-.262 0-.415.17-.415.416v6.844c0 .261.153.415.415.415h.353c.247 0 .4-.154.4-.415V3.935c0-.26-.154-.415-.4-.415zM74.43.09c-.493 0-.846.37-.846.877 0 .492.353.861.846.861.476 0 .845-.369.845-.86 0-.508-.369-.877-.845-.877zM81.09 3.351c-1.138 0-2.261.584-2.677 1.8V3.935c0-.26-.153-.415-.415-.415h-.354c-.246 0-.4.17-.4.415v6.844c0 .262.154.416.4.416h.354c.262 0 .415-.154.415-.416V7.473c.016-2.476 1.754-3.076 2.6-3.076.969 0 1.938.584 1.938 2.445v3.937c0 .262.153.416.415.416h.353c.262 0 .416-.154.416-.416V6.842c0-2.537-1.415-3.49-3.045-3.49zM93.21 3.52h-.354c-.262 0-.4.17-.4.416v1.107c-.692-1.153-1.769-1.692-3.014-1.692-2.354 0-3.83 1.815-3.83 4.014 0 2.2 1.507 4 3.83 4 1.23 0 2.322-.508 3.014-1.677v1.323c0 1.753-1.138 2.768-2.799 2.768-.876 0-1.676-.185-2.43-.677-.246-.169-.43-.138-.554.124l-.107.184c-.124.23-.077.43.122.57.77.522 1.677.83 2.969.83 2.168 0 3.968-1.246 3.968-3.707V3.935c0-.26-.154-.415-.416-.415zm-3.63 6.798c-1.769 0-2.8-1.338-2.8-2.953 0-1.615 1.016-2.968 2.785-2.968 1.738 0 2.906 1.277 2.906 2.968 0 1.723-1.2 2.953-2.891 2.953zM72.12 3.516h-2.232V1.562c0-.231-.138-.354-.37-.354h-.2c-.215 0-.353.107-.384.338l-.23 1.97h-1.048c-.169 0-.246.092-.246.246v.447c0 .169.077.246.246.246h1.047V8.98c0 1.734.98 2.21 1.973 2.21h1.06c.261 0 .415-.153.415-.414v-.216c0-.246-.154-.4-.415-.4h-1.06c-.416 0-.788-.24-.788-1.04V4.456h2.231c.154 0 .246-.077.246-.247v-.446c0-.154-.091-.246-.245-.246z" transform="translate(-271 -21) translate(271 21) translate(0 3) translate(18.738 2.776)"/>
                    </g>
                    <path d="M14.538 9.919c-.805-.487-1.785-.418-2.503.09-.146.103-.338.115-.493.025l-2.268-1.31c-.038-.021-.038-.076 0-.098l2.255-1.302c.156-.09.35-.077.496.027.717.514 1.7.586 2.509.1 1.028-.62 1.4-1.985.83-3.04-.614-1.136-2.04-1.534-3.15-.892-.793.457-1.207 1.318-1.133 2.174.015.178-.07.348-.225.438L8.59 7.44c-.038.021-.086-.006-.086-.05V4.772c0-.18.106-.34.269-.415.86-.396 1.433-1.312 1.313-2.346C9.966.97 9.12.13 8.081.015c-1.378-.153-2.545.92-2.545 2.268 0 .92.545 1.713 1.328 2.074.164.075.27.235.27.415V7.39c0 .044-.047.072-.086.05L4.782 6.13c-.155-.089-.24-.259-.225-.437.082-.94-.426-1.888-1.38-2.299-.958-.413-2.108-.1-2.727.74-.822 1.117-.475 2.665.692 3.338.8.463 1.765.385 2.471-.12.147-.106.34-.119.496-.028l2.255 1.301c.038.022.038.077 0 .1l-2.268 1.308c-.155.09-.347.078-.493-.025-.717-.508-1.697-.577-2.502-.09-1.025.62-1.396 1.984-.826 3.038.614 1.135 2.04 1.533 3.15.892.797-.46 1.21-1.328 1.132-2.188-.016-.179.069-.351.224-.44l2.268-1.31c.038-.022.085.006.085.05v2.618c0 .18-.106.34-.269.414-.86.397-1.432 1.313-1.313 2.347.12 1.039.966 1.88 2.006 1.996 1.378.153 2.544-.921 2.544-2.268 0-.92-.544-1.713-1.328-2.074-.163-.075-.27-.236-.27-.415V9.959c0-.044.048-.071.086-.049l2.268 1.31c.155.09.24.261.224.44-.08.86.335 1.728 1.132 2.188 1.11.641 2.536.243 3.15-.892.57-1.054.199-2.417-.826-3.037z" transform="translate(-271 -21) translate(271 21) translate(0 3)"/>
                </g>
            </g>
        </g>
    </g>
</svg>
